<svg viewBox="0 0 131 41" fill="none" xmlns="http://www.w3.org/2000/svg">
<path d="M101.196 33.8995C100.34 32.9093 99.689 31.7599 99.2789 30.5172L99.1678 30.2047L99.0566 29.8227L98.9872 29.5866L98.8761 29.149L98.8205 28.892C98.7649 28.649 98.7163 28.392 98.6747 28.135C98.6663 28.0417 98.6523 27.9489 98.633 27.8572L98.5774 27.4058C98.5885 27.3065 98.5885 27.2064 98.5774 27.1071L98.5427 26.7251L117.989 22.0371C117.875 21.0303 117.576 20.0532 117.107 19.1549C116.386 17.5842 115.214 16.264 113.739 15.3628C112.105 14.3297 110.27 13.6573 108.356 13.3904L108.03 13.3417C106.876 13.2142 105.711 13.2142 104.557 13.3417C101.495 13.6729 98.6202 14.9777 96.355 17.0644C94.118 19.0996 92.6225 21.8218 92.1045 24.8013V24.9194C92.0698 25.1139 92.042 25.3014 92.0212 25.5167C92.0003 25.732 92.0212 25.7598 91.9795 25.8987C91.9885 26.005 91.9885 26.1118 91.9795 26.2181C91.9932 26.4031 91.9932 26.5888 91.9795 26.7738V27.6697C92.0247 29.278 92.3636 30.8644 92.9796 32.3508C94.0778 34.8982 95.8926 37.0717 98.2033 38.6068C100.514 40.1419 103.221 40.9725 105.995 40.9975C108.341 41.0449 110.664 40.5256 112.766 39.4835C114.846 38.4565 116.64 36.9321 117.989 35.0455L117.656 34.2051C116.281 36.8304 106.794 40.0946 101.196 33.8995ZM110.044 22.3636L98.4802 25.1416C98.4802 24.7944 98.4802 24.4471 98.5288 24.1207V24.0165C98.523 23.9055 98.523 23.7942 98.5288 23.6831L98.5844 23.2317C98.6892 22.5091 98.8518 21.7961 99.0705 21.0995C99.4628 19.807 100.063 18.5872 100.849 17.488C101.565 16.4751 102.485 15.6234 103.55 14.9878C104.57 14.3782 105.738 14.061 106.926 14.071C108.583 14.071 109.796 14.534 110.565 15.46C110.845 15.7827 111.078 16.1427 111.259 16.5296C112.03 18.4951 111.975 21.7663 110.044 22.3636Z" fill="currentColor"/>
<path d="M66.4987 34.1836C65.1096 36.8367 55.6364 40.094 50.0385 33.9058C49.1206 32.836 48.4347 31.5873 48.0244 30.2387C47.5415 28.7094 47.307 27.1126 47.3299 25.509C47.3195 24.0119 47.5397 22.522 47.9828 21.0919C48.3751 19.7994 48.9756 18.5795 49.7607 17.4804C50.4642 16.4757 51.3674 15.6269 52.4138 14.9871C53.4336 14.3779 54.6013 14.0607 55.7892 14.0703C57.4468 14.0703 58.6599 14.5333 59.4285 15.4593C60.2206 16.4606 60.6294 17.7117 60.5814 18.9875C60.5983 19.65 60.4996 20.3105 60.2897 20.9391L66.1931 19.5501C64.047 13.9939 56.9351 13.223 55.6225 13.223C44.3574 13.0424 38.1761 23.6408 41.8154 32.2737C42.915 34.8227 44.7306 36.9978 47.0422 38.5352C49.3537 40.0725 52.0617 40.9059 54.8377 40.9343C57.1838 40.9817 59.5067 40.4623 61.6092 39.4203C63.689 38.3935 65.4831 36.8691 66.832 34.9823L66.4987 34.1836Z" fill="currentColor"/>
<path d="M92.113 34.1835C90.7239 36.8365 81.2507 40.0938 75.6529 33.9057C74.7445 32.8431 74.0659 31.604 73.6596 30.2664C73.1768 28.7371 72.9423 27.1403 72.9651 25.5367C72.9547 24.0395 73.1749 22.5497 73.6179 21.1196C74.0079 19.8274 74.6061 18.6076 75.3889 17.5081C76.0908 16.4945 76.994 15.6363 78.042 14.987C79.0617 14.3774 80.2294 14.0602 81.4174 14.0702C83.0703 14.0702 84.2834 14.5332 85.0566 15.4592C85.8562 16.4576 86.2725 17.709 86.2304 18.9874C86.2481 19.6505 86.147 20.3115 85.9317 20.939L91.8004 19.5499C89.6683 13.9938 82.5564 13.2298 81.2576 13.2298C69.9925 13.0492 63.8113 23.6476 67.4506 32.2805C68.5429 34.836 70.355 37.0187 72.6659 38.5626C74.9768 40.1065 77.6868 40.945 80.4659 40.9759C82.8167 41.0255 85.1446 40.5061 87.2513 39.4618C89.331 38.4349 91.1249 36.9104 92.4741 35.0238L92.113 34.1835Z" fill="currentColor"/>
<path d="M126.506 35.4205V0L118.172 2.028H118.117V2.81281C118.408 2.81281 120.929 3.50732 120.929 5.24362V35.2955C120.929 39.0876 118.249 39.6362 116.436 39.7543V40.3863H131V39.7543C129.194 39.6362 126.569 39.0806 126.506 35.4205Z" fill="currentColor"/>
<path d="M25.7578 0L17.5069 2.02105H17.4444V2.63223C17.7361 2.63223 20.1878 3.50038 19.528 5.06305C16.3957 11.9944 6.23486 35.1288 5.70008 36.1706C3.94295 39.6432 1.44962 39.6432 0.42173 39.7543V40.3863H13.3398V39.7404C13.3398 39.7404 8.43648 39.796 8.43648 37.2332C8.43648 35.6775 10.9715 29.5588 11.6591 27.885L28.4873 23.7804C28.5289 23.8845 33.0572 34.851 33.0572 37.1638C33.0572 39.664 29.0359 39.7404 28.8901 39.7404V40.3724H45.7461V39.7404C44.5496 39.7608 43.3734 39.4294 42.3635 38.7874C41.3535 38.1454 40.5543 37.221 40.0649 36.1289C39.5579 35.1288 25.7578 0 25.7578 0ZM27.9039 22.3635L12.3675 26.1556C12.4508 25.9542 20.9031 6.1465 21.1393 5.64645C21.4935 6.47292 27.8969 22.3635 27.8969 22.3635H27.9039Z" fill="currentColor"/>
</svg>
