<?xml version="1.0" encoding="UTF-8"?>
<svg id="Layer_1" data-name="Layer 1" xmlns="http://www.w3.org/2000/svg" viewBox="0 0 80 80">
  <defs>
    <style>
      .cls-1 {
        fill: #5101a0;
      }

      .cls-1, .cls-2 {
        stroke-width: 0px;
      }

      .cls-2 {
        fill: #fff;
      }
    </style>
  </defs>
  <g>
    <path class="cls-1" d="M10.36,35.25v30.94l19.89-15.47-19.89-15.47Z"/>
    <path class="cls-1" d="M62.25,27.2v9.51l5.87-4.57-5.87-4.94Z"/>
    <path class="cls-1" d="M41.22,9.5c-.65-.55-1.6-.55-2.25,0l-4.64,3.9h11.53l-4.64-3.9Z"/>
    <path class="cls-1" d="M17.94,27.2l-5.87,4.94,5.87,4.57v-9.51Z"/>
    <path class="cls-1" d="M33.7,52.47l-20.99,16.32h54.77l-20.99-16.32h-12.79Z"/>
    <path class="cls-1" d="M49.94,50.72l19.89,15.47v-30.94l-19.89,15.47Z"/>
    <path class="cls-1" d="M39.65,30.01c-1.42,0-2.89,1.38-2.89,3.69s1.43,3.92,2.77,3.92c1.41,0,2.56-1.65,2.65-3.72v-.44c-.06-2.04-1.08-3.45-2.53-3.45h0Z"/>
    <path class="cls-1" d="M46.49,48.97l12.26-9.54v-20.78c0-.97-.78-1.75-1.75-1.75H23.19c-.97,0-1.75.78-1.75,1.75v20.78l12.26,9.54h12.79Z"/>
  </g>
  <path class="cls-2" d="M42.72,18.25l-4.91,1.2h-.04v.36c.17,0,1.63.52,1.24,1.45-1.86,4.12-7.91,17.89-8.23,18.51-1.05,2.07-2.53,2.07-3.14,2.13v.38h7.69v-.38s-2.92.03-2.92-1.49c0-.93,1.51-4.57,1.92-5.56l10.01-2.44c.02.06,2.72,6.59,2.72,7.96,0,1.49-2.39,1.53-2.48,1.53v.38h10.03v-.38c-.71.01-1.41-.19-2.01-.57-.6-.38-1.08-.93-1.37-1.58-.3-.6-8.51-21.5-8.51-21.5ZM44,31.56l-9.25,2.26c.05-.12,5.08-11.91,5.22-12.21.21.49,4.02,9.95,4.02,9.95h0Z"/>
</svg>