
<svg version="1.0" xmlns="http://www.w3.org/2000/svg"
 width="500.000000pt" height="500.000000pt" viewBox="0 0 500.000000 500.000000"
 preserveAspectRatio="xMidYMid meet">

<g transform="translate(0.000000,512.000000) scale(0.100000,-0.100000)"
fill="#000000" stroke="none">
<path d="M1210 4970 l0 -150 300 0 300 0 0 -450 0 -450 750 0 750 0 0 450 0
450 150 0 150 0 0 -450 0 -450 150 0 150 0 0 600 0 600 -1350 0 -1350 0 0
-150z"/>
<path d="M910 3450 l0 -150 150 0 150 0 0 -1650 0 -1650 300 0 300 0 0 525 0
525 750 0 750 0 0 -525 0 -525 300 0 300 0 0 1650 0 1650 150 0 150 0 0 150 0
150 -1650 0 -1650 0 0 -150z m1200 -600 l0 -150 -150 0 -150 0 0 150 0 150
150 0 150 0 0 -150z m600 0 l0 -150 -150 0 -150 0 0 150 0 150 150 0 150 0 0
-150z m600 0 l0 -150 -150 0 -150 0 0 150 0 150 150 0 150 0 0 -150z m-1200
-600 l0 -150 -150 0 -150 0 0 150 0 150 150 0 150 0 0 -150z m600 0 l0 -150
-150 0 -150 0 0 150 0 150 150 0 150 0 0 -150z m600 0 l0 -150 -150 0 -150 0
0 150 0 150 150 0 150 0 0 -150z m0 -675 l0 -145 -750 0 -750 0 0 145 0 145
750 0 750 0 0 -145z"/>
<path d="M0 2850 l0 -150 150 0 150 0 0 -1350 0 -1350 305 0 305 0 0 1500 0
1500 -455 0 -455 0 0 -150z"/>
<path d="M4210 1500 l0 -1500 305 0 305 0 0 1350 0 1350 150 0 150 0 0 150 0
150 -455 0 -455 0 0 -1500z"/>
<path d="M2110 375 l0 -375 150 0 150 0 0 375 0 375 -150 0 -150 0 0 -375z"/>
<path d="M2710 375 l0 -375 150 0 150 0 0 375 0 375 -150 0 -150 0 0 -375z"/>
</g>
</svg>