<svg xmlns="http://www.w3.org/2000/svg" width="24" height="24" viewBox="0 0 24 24" fill="none">
  <rect width="24" height="24" rx="12" fill="#0A66C2"/>
  <rect x="4.37109" y="5.01807" width="13.9615" height="12.6923" fill="white"/>
  <path d="M17.8088 16.7276H15.364V13.1934C15.364 12.3506 15.3477 11.2657 14.0925 11.2657C12.8191 11.2657 12.6243 12.184 12.6243 13.132V16.7274H10.1795V9.45957H12.5265V10.4528H12.5594C12.7943 10.0821 13.1337 9.77711 13.5414 9.57037C13.9492 9.36363 14.4101 9.26286 14.875 9.27879C17.3529 9.27879 17.8098 10.7833 17.8098 12.7406L17.8088 16.7276ZM7.42099 8.46611C7.14039 8.46615 6.86607 8.38939 6.63273 8.24552C6.3994 8.10165 6.21753 7.89714 6.1101 7.65785C6.00267 7.41856 5.97452 7.15524 6.02921 6.90119C6.0839 6.64713 6.21898 6.41375 6.41736 6.23056C6.61574 6.04737 6.86851 5.9226 7.14371 5.87202C7.41891 5.82144 7.70417 5.84733 7.96343 5.94641C8.22269 6.04549 8.4443 6.21331 8.60023 6.42866C8.75617 6.644 8.83943 6.8972 8.83948 7.15622C8.83951 7.32821 8.80284 7.49851 8.73158 7.65742C8.66031 7.81633 8.55584 7.96072 8.42413 8.08235C8.29241 8.20399 8.13601 8.30048 7.9639 8.36632C7.79178 8.43217 7.6073 8.46607 7.42099 8.46611ZM8.64338 16.7276H6.19605V9.45957H8.64338V16.7276ZM19.0276 3.75104H4.96756C4.64843 3.74771 4.34092 3.86148 4.11261 4.06733C3.88431 4.27319 3.75389 4.55429 3.75 4.84888V17.8817C3.75376 18.1764 3.8841 18.4577 4.1124 18.6638C4.34069 18.8698 4.64827 18.9838 4.96756 18.9807H19.0276C19.3475 18.9844 19.656 18.8707 19.8852 18.6647C20.1144 18.4586 20.2456 18.177 20.25 17.8817V4.84794C20.2454 4.55277 20.1141 4.27135 19.8849 4.0655C19.6557 3.85964 19.3474 3.7462 19.0276 3.7501" fill="#0A66C2"/>
</svg>